<svg id="Layer_1" enable-background="new 0 0 512 512" height="512" viewBox="0 0 512 512" width="512" xmlns="http://www.w3.org/2000/svg"><g><g><path d="m427.606 168.761 14.778-14.778c5.262-5.262 5.261-13.824 0-19.086l-22.17-22.17c-5.264-5.263-13.824-5.263-19.088 0l-14.56 14.56c-30.854-23.768-67.298-38.516-106.066-42.897v-13.916c9.456-7.46 15-18.746 15-30.974 0-21.78-17.72-39.5-39.5-39.5s-39.5 17.72-39.5 39.5c0 12.228 5.544 23.514 15 30.974v13.915c-13.89 1.58-27.563 4.504-40.863 8.754-3.945 1.261-6.122 5.481-4.86 9.427 1.26 3.946 5.485 6.121 9.427 4.861 19.58-6.258 40.035-9.431 60.796-9.431 110.005 0 199.5 89.495 199.5 199.5s-89.495 199.5-199.5 199.5-199.5-89.495-199.5-199.5c0-37.716 10.572-74.435 30.575-106.186 19.47-30.906 46.986-55.886 79.576-72.238 3.702-1.858 5.198-6.365 3.34-10.067-1.856-3.703-6.364-5.197-10.066-3.34-12.202 6.122-23.723 13.393-34.466 21.642l-14.584-14.585c-5.264-5.263-13.824-5.263-19.088 0l-22.17 22.17c-5.261 5.262-5.262 13.824 0 19.086l14.808 14.808c-3.528 4.698-6.894 9.531-10.042 14.527-21.512 34.151-32.883 73.634-32.883 114.183 0 57.295 22.312 111.161 62.825 151.674s94.38 62.826 151.675 62.826 111.161-22.312 151.675-62.826 62.825-94.379 62.825-151.674c0-47.062-15.065-91.803-42.894-128.739zm-171.606-153.761c13.51 0 24.5 10.991 24.5 24.5 0 4.687-1.316 9.15-3.701 12.971-.979-1.564-2.138-3.03-3.476-4.364-4.627-4.629-10.779-7.178-17.323-7.178-8.76 0-16.457 4.625-20.789 11.558-2.392-3.825-3.711-8.295-3.711-12.988 0-13.508 10.99-24.499 24.5-24.499zm-9.5 68.215v-17.785c0-5.238 4.262-9.5 9.5-9.5 2.537 0 4.922.988 6.725 2.792 1.79 1.784 2.775 4.166 2.775 6.708v17.786c-3.156-.136-6.322-.216-9.5-.216-3.174 0-6.341.077-9.5.215zm151.673 53.679 12.497-12.498 20.044 20.044-12.596 12.595c-3.335-3.838-6.813-7.579-10.443-11.21-3.088-3.087-6.263-6.057-9.502-8.931zm-316.887 7.546 20.044-20.044 12.504 12.504c-7.074 6.266-13.731 12.997-19.933 20.153z"/><path d="m349.871 138.562c-28.251-16.727-60.615-25.562-93.622-25.562h-.26c-101.727.143-184.489 82.909-184.489 184.5 0 32.152 8.435 63.833 24.394 91.617 15.47 26.935 37.665 49.737 64.186 65.939 1.221.746 2.57 1.101 3.903 1.101 2.526 0 4.993-1.277 6.407-3.591 2.159-3.535 1.045-8.151-2.49-10.31-24.378-14.894-44.779-35.853-58.999-60.61-14.654-25.514-22.4-54.611-22.4-84.146 0-93.331 76.042-169.369 169.511-169.5 60.626-.049 117.024 32.632 147.17 85.384 2.056 3.597 6.637 4.846 10.233 2.791s4.846-6.637 2.79-10.233c-15.882-27.79-38.819-51.089-66.334-67.38z"/><path d="m185.67 460.1c-1.485 3.866.443 8.205 4.31 9.691 21.074 8.102 43.286 12.209 66.02 12.209 49.316 0 95.713-19.272 130.642-54.267 34.824-34.89 53.951-81.146 53.858-130.247-.04-21.015-3.555-41.617-10.447-61.234-1.373-3.908-5.657-5.964-9.563-4.589-3.908 1.373-5.963 5.654-4.59 9.562 6.333 18.024 9.563 36.963 9.6 56.29.085 45.089-17.485 87.572-49.475 119.622-32.094 32.155-74.72 49.863-120.025 49.863-20.887 0-41.289-3.771-60.638-11.209-3.871-1.488-8.206.442-9.692 4.309z"/><path d="m248.5 266.909c-13.759 3.374-24 15.806-24 30.591s10.241 27.216 24 30.591v21.7c-8.729 3.096-15 11.432-15 21.21v23c0 4.142 3.357 7.5 7.5 7.5h30c4.143 0 7.5-3.358 7.5-7.5v-23c0-9.777-6.271-18.114-15-21.21v-21.7c13.759-3.374 24-15.806 24-30.591s-10.241-27.216-24-30.591v-80.909c0-4.142-3.357-7.5-7.5-7.5s-7.5 3.358-7.5 7.5zm15 119.591h-15v-15.5c0-4.136 3.364-7.5 7.5-7.5s7.5 3.364 7.5 7.5zm9-89c0 9.098-7.402 16.5-16.5 16.5s-16.5-7.402-16.5-16.5 7.402-16.5 16.5-16.5 16.5 7.402 16.5 16.5z"/><path d="m256 159.5c4.143 0 7.5-3.358 7.5-7.5v-8c0-4.142-3.357-7.5-7.5-7.5s-7.5 3.358-7.5 7.5v8c0 4.142 3.357 7.5 7.5 7.5z"/><path d="m248.5 443v8c0 4.142 3.357 7.5 7.5 7.5s7.5-3.358 7.5-7.5v-8c0-4.142-3.357-7.5-7.5-7.5s-7.5 3.358-7.5 7.5z"/><path d="m358.884 202.116c1.919 0 3.839-.732 5.303-2.196l5.657-5.657c2.93-2.929 2.93-7.678.001-10.607-2.929-2.928-7.678-2.929-10.606 0l-5.657 5.657c-2.93 2.929-2.93 7.678-.001 10.607 1.464 1.463 3.383 2.196 5.303 2.196z"/><path d="m142.155 411.344c1.465 1.464 3.385 2.197 5.304 2.197s3.839-.732 5.304-2.197l5.657-5.657c2.929-2.929 2.929-7.678 0-10.606-2.93-2.929-7.678-2.929-10.607 0l-5.657 5.657c-2.929 2.929-2.929 7.678-.001 10.606z"/><path d="m409.5 305c4.143 0 7.5-3.358 7.5-7.5s-3.357-7.5-7.5-7.5h-8c-4.143 0-7.5 3.358-7.5 7.5s3.357 7.5 7.5 7.5z"/><path d="m102.5 290c-4.143 0-7.5 3.358-7.5 7.5s3.357 7.5 7.5 7.5h8c4.143 0 7.5-3.358 7.5-7.5s-3.357-7.5-7.5-7.5z"/><path d="m353.58 405.687 5.657 5.657c1.465 1.464 3.385 2.197 5.304 2.197s3.839-.732 5.304-2.197c2.929-2.929 2.929-7.678 0-10.606l-5.657-5.657c-2.93-2.929-7.678-2.929-10.607 0-2.93 2.928-2.93 7.677-.001 10.606z"/><path d="m147.813 199.919c1.464 1.464 3.384 2.196 5.303 2.196s3.839-.732 5.304-2.197c2.929-2.929 2.929-7.678-.001-10.607l-5.657-5.657c-2.928-2.929-7.677-2.928-10.606 0-2.929 2.929-2.929 7.678.001 10.607z"/></g></g></svg>