<?xml version="1.0"?>
<svg xmlns="http://www.w3.org/2000/svg" viewBox="0 0 512 512" width="512" height="512"><g id="Outline"><path d="M482.344,103.03,417.456,38.142a75.6,75.6,0,0,0-106.912,0l-4.2,4.2,11.314,11.314,4.2-4.2a59.6,59.6,0,0,1,84.284,0l64.888,64.888a30.638,30.638,0,0,1,4.4,37.767L381.657,58.343,370.343,69.657,464.686,164,452,176.686,357.657,82.343,346.343,93.657,440.686,188,428,200.686l-94.343-94.343-11.314,11.314L416.686,212,404,224.686l-94.343-94.343-11.314,11.314L392.686,236,380,248.686l-94.343-94.343-11.314,11.314L368.686,260,356,272.686l-94.343-94.343-11.314,11.314L344.686,284,332,296.686l-94.343-94.343-11.314,11.314L320.686,308,308,320.686l-94.343-94.343-11.314,11.314L296.686,332,284,344.686l-94.343-94.343-11.314,11.314L272.686,356,260,368.686l-94.343-94.343-11.314,11.314L248.686,380,236,392.686l-94.343-94.343-11.314,11.314L224.686,404,212,416.686l-94.343-94.343-11.314,11.314L200.686,428,188,440.686,93.657,346.343,82.343,357.657,176.686,452,164,464.686,69.657,370.343,58.343,381.657l93.768,93.768a30.638,30.638,0,0,1-37.767-4.4L49.456,406.142a59.6,59.6,0,0,1,0-84.284l252.2-252.2L290.343,58.343l-252.2,252.2a75.6,75.6,0,0,0,0,106.912l64.888,64.888a46.628,46.628,0,0,0,65.941,0L482.343,168.971a46.628,46.628,0,0,0,0-65.941Z"/></g></svg>
