<svg id="Layer_1" enable-background="new 0 0 512.085 512.085" height="512" viewBox="0 0 512.085 512.085" width="512" xmlns="http://www.w3.org/2000/svg"><g><g><path d="m437.105 75.065c-87.359-87.356-224.489-99.958-326.068-29.96-4.548 3.134-5.694 9.361-2.561 13.908 3.135 4.549 9.361 5.693 13.908 2.561 41.719-28.749 89.945-42.368 137.72-41.524.084 4.909.014 9.808-.209 14.69l-9.729-.851c-5.505-.493-10.354 3.588-10.834 9.09-.481 5.502 3.589 10.353 9.09 10.834l9.706.849c-.921 7.011-2.138 13.969-3.678 20.847l-9.408-2.521c-5.337-1.428-10.818 1.737-12.248 7.07-1.43 5.335 1.736 10.818 7.07 12.248l9.382 2.514c-2.118 6.734-4.531 13.37-7.238 19.886l-8.802-4.104c-5.007-2.331-10.956-.168-13.29 4.837-2.334 5.006-.168 10.955 4.837 13.29l8.815 4.11c-3.244 6.26-6.779 12.375-10.577 18.334l-7.973-5.583c-4.521-3.168-10.759-2.068-13.927 2.456-3.168 4.523-2.068 10.759 2.456 13.927l7.998 5.6c-4.274 5.595-8.818 11.004-13.607 16.221l-6.906-6.906c-3.906-3.904-10.236-3.904-14.143 0-3.905 3.905-3.905 10.237 0 14.143l6.909 6.909c-5.217 4.789-10.633 9.323-16.228 13.597l-5.595-7.991c-3.168-4.523-9.402-5.624-13.928-2.455-4.523 3.168-5.623 9.403-2.455 13.928l5.586 7.978c-5.959 3.799-12.082 7.319-18.342 10.563l-4.107-8.806c-2.334-5.005-8.281-7.169-13.29-4.837-5.005 2.335-7.171 8.284-4.837 13.29l4.109 8.81c-6.516 2.708-13.156 5.113-19.89 7.23l-2.514-9.382c-1.43-5.335-6.908-8.499-12.248-7.07-5.334 1.43-8.5 6.913-7.07 12.248l2.521 9.406c-6.878 1.54-13.834 2.765-20.845 3.686l-.85-9.713c-.48-5.502-5.336-9.572-10.833-9.091-5.502.481-9.572 5.331-9.091 10.833l.852 9.735c-3.551.162-7.11.253-10.677.253-1.335 0-2.674-.015-4.014-.038-.847-47.778 12.771-96.006 41.52-137.726 3.134-4.548 1.987-10.774-2.561-13.908-4.547-3.135-10.775-1.989-13.908 2.561-69.994 101.577-57.394 238.707 29.963 326.063 48.353 48.352 112.64 74.98 181.021 74.98 68.38 0 132.667-26.629 181.02-74.98 48.352-48.352 74.98-112.639 74.98-181.02-.002-68.379-26.631-132.666-74.982-181.019zm-415.85 205.061c.934.01 1.868.027 2.802.027 4.152 0 8.296-.104 12.429-.307l.889 10.167c.455 5.206 4.821 9.13 9.95 9.13.292 0 .587-.013.883-.039 5.502-.481 9.572-5.331 9.091-10.833l-.891-10.193c8.172-1.046 16.275-2.481 24.28-4.302l2.654 9.903c1.197 4.468 5.237 7.414 9.653 7.414.856 0 1.728-.111 2.595-.344 5.334-1.43 8.5-6.913 7.07-12.248l-2.66-9.923c7.853-2.441 15.583-5.254 23.164-8.433l4.344 9.314c1.697 3.639 5.304 5.775 9.07 5.775 1.414 0 2.853-.302 4.22-.938 5.005-2.335 7.171-8.284 4.837-13.29l-4.342-9.312c7.304-3.754 14.434-7.859 21.362-12.307l5.881 8.398c1.945 2.778 5.048 4.265 8.2 4.265 1.98 0 3.981-.587 5.728-1.81 4.523-3.168 5.623-9.403 2.455-13.928l-5.87-8.383c6.533-4.956 12.842-10.238 18.901-15.837l7.224 7.224c1.953 1.952 4.512 2.929 7.071 2.929s5.118-.977 7.071-2.929c3.905-3.905 3.905-10.237 0-14.143l-7.226-7.226c5.6-6.06 10.888-12.365 15.844-18.898l8.379 5.867c1.745 1.223 3.745 1.81 5.727 1.81 3.152 0 6.255-1.487 8.2-4.266 3.168-4.523 2.068-10.759-2.456-13.927l-8.396-5.879c4.448-6.928 8.568-14.051 12.322-21.355l9.296 4.335c1.367.637 2.805.938 4.22.938 3.767 0 7.373-2.138 9.07-5.775 2.334-5.006.168-10.955-4.837-13.29l-9.308-4.34c3.179-7.581 5.989-15.313 8.43-23.166l9.92 2.658c.867.232 1.738.344 2.595.344 4.415 0 8.456-2.947 9.653-7.414 1.43-5.335-1.736-10.818-7.07-12.248l-9.905-2.654c1.82-8.005 3.248-16.109 4.294-24.28l10.202.893c.297.026.592.039.884.039 5.128 0 9.495-3.924 9.95-9.129.481-5.502-3.589-10.353-9.09-10.834l-10.185-.891c.248-5.062.361-10.139.305-15.229 52.469 5.397 103.203 28.327 142.828 67.952 39.896 39.897 62.482 90.643 67.781 142.829-5.032-.051-10.053.062-15.058.308l-.891-10.188c-.48-5.502-5.336-9.577-10.833-9.091-5.502.481-9.572 5.331-9.091 10.833l.893 10.209c-8.171 1.047-16.274 2.475-24.279 4.295l-2.656-9.912c-1.43-5.334-6.913-8.5-12.247-7.071-5.335 1.43-8.501 6.913-7.071 12.247l2.66 9.929c-7.853 2.44-15.585 5.25-23.165 8.428l-4.343-9.313c-2.335-5.005-8.281-7.17-13.29-4.837-5.005 2.335-7.171 8.284-4.837 13.29l4.337 9.3c-7.304 3.753-14.428 7.872-21.356 12.32l-5.881-8.399c-3.168-4.523-9.402-5.624-13.928-2.455-4.523 3.168-5.623 9.403-2.455 13.928l5.867 8.379c-6.533 4.955-12.838 10.243-18.898 15.842l-7.225-7.225c-3.906-3.904-10.236-3.904-14.143 0-3.905 3.905-3.905 10.237 0 14.143l7.225 7.225c-5.599 6.06-10.887 12.365-15.843 18.898l-8.379-5.867c-4.522-3.167-10.759-2.067-13.928 2.455-3.168 4.524-2.068 10.76 2.455 13.928l8.397 5.88c-4.448 6.928-8.568 14.051-12.322 21.355l-9.297-4.335c-5.006-2.331-10.955-.167-13.29 4.837-2.334 5.006-.168 10.956 4.837 13.29l9.308 4.34c-3.179 7.581-5.989 15.313-8.43 23.166l-9.922-2.658c-5.338-1.429-10.817 1.737-12.247 7.071s1.736 10.817 7.071 12.247l9.905 2.654c-1.821 8.005-3.248 16.109-4.295 24.281l-10.203-.893c-5.484-.497-10.353 3.588-10.833 9.091-.481 5.502 3.589 10.352 9.091 10.833l10.184.891c-.245 5.006-.357 10.026-.304 15.059-52.186-5.3-102.933-27.886-142.829-67.783-39.624-39.627-62.553-90.363-67.949-142.836zm401.707 142.836c-47.029 47.03-109.133 70.009-170.902 68.965-.079-4.845-.006-9.679.214-14.498l9.73.851c.296.026.591.039.883.039 5.128 0 9.495-3.924 9.95-9.13.481-5.502-3.589-10.352-9.091-10.833l-9.705-.849c.921-7.011 2.138-13.969 3.678-20.847l9.408 2.521c.867.232 1.737.344 2.594.344 4.415 0 8.456-2.947 9.653-7.415 1.43-5.334-1.736-10.817-7.071-12.247l-9.38-2.513c2.118-6.734 4.531-13.37 7.238-19.886l8.801 4.104c1.367.637 2.805.938 4.22.938 3.767 0 7.373-2.138 9.07-5.775 2.334-5.006.168-10.956-4.837-13.29l-8.814-4.11c3.243-6.26 6.778-12.374 10.577-18.333l7.972 5.582c1.746 1.223 3.746 1.81 5.728 1.81 3.152 0 6.255-1.487 8.2-4.265 3.168-4.524 2.068-10.76-2.455-13.928l-7.999-5.601c4.274-5.595 8.818-11.004 13.606-16.221l6.907 6.907c1.953 1.952 4.512 2.929 7.071 2.929s5.118-.977 7.071-2.929c3.905-3.905 3.905-10.237 0-14.143l-6.907-6.907c5.217-4.789 10.626-9.333 16.221-13.606l5.601 7.999c1.945 2.778 5.048 4.265 8.2 4.265 1.98 0 3.981-.587 5.728-1.81 4.523-3.168 5.623-9.403 2.455-13.928l-5.582-7.972c5.959-3.799 12.074-7.334 18.334-10.577l4.111 8.815c1.697 3.639 5.304 5.775 9.07 5.775 1.414 0 2.853-.302 4.22-.938 5.005-2.335 7.171-8.284 4.837-13.29l-4.105-8.803c6.516-2.708 13.152-5.121 19.886-7.239l2.514 9.382c1.197 4.468 5.237 7.415 9.653 7.415.856 0 1.728-.111 2.594-.344 5.335-1.43 8.501-6.913 7.071-12.247l-2.521-9.411c6.878-1.54 13.836-2.757 20.847-3.678l.849 9.708c.455 5.206 4.821 9.13 9.95 9.13.292 0 .587-.013.883-.039 5.502-.481 9.572-5.331 9.091-10.833l-.851-9.732c4.819-.219 9.653-.293 14.498-.213 1.045 61.768-21.934 123.871-68.964 170.901z"/><path d="m82.136 92.137c5.522 0 10-4.478 10-10s-4.478-10-10-10h-.007c-5.522 0-9.996 4.478-9.996 10s4.481 10 10.003 10z"/></g></g></svg>